<mxfile host="app.diagrams.net" agent="Mozilla/5.0 (X11; Linux x86_64) AppleWebKit/537.36 (KHTML, like Gecko) Chrome/131.0.0.0 Safari/537.36" version="25.0.3">
  <diagram name="PÃ¡gina-1" id="VCxnBZdvLtHTw2PQRyFp">
    <mxGraphModel dx="943" dy="520" grid="1" gridSize="10" guides="1" tooltips="1" connect="1" arrows="1" fold="1" page="1" pageScale="1" pageWidth="827" pageHeight="1169" math="0" shadow="0">
      <root>
        <mxCell id="0" />
        <mxCell id="1" parent="0" />
        <mxCell id="13FwoXfMN4bSYk38nCAL-40" style="edgeStyle=orthogonalEdgeStyle;rounded=0;orthogonalLoop=1;jettySize=auto;html=1;" edge="1" parent="1" source="13FwoXfMN4bSYk38nCAL-38" target="13FwoXfMN4bSYk38nCAL-1">
          <mxGeometry relative="1" as="geometry" />
        </mxCell>
        <mxCell id="13FwoXfMN4bSYk38nCAL-38" value="" style="rounded=0;whiteSpace=wrap;html=1;" vertex="1" parent="1">
          <mxGeometry x="287.77" y="511" width="150" height="112.39" as="geometry" />
        </mxCell>
        <mxCell id="13FwoXfMN4bSYk38nCAL-46" style="edgeStyle=orthogonalEdgeStyle;rounded=0;orthogonalLoop=1;jettySize=auto;html=1;" edge="1" parent="1" source="13FwoXfMN4bSYk38nCAL-34" target="13FwoXfMN4bSYk38nCAL-1">
          <mxGeometry relative="1" as="geometry" />
        </mxCell>
        <mxCell id="13FwoXfMN4bSYk38nCAL-34" value="" style="rounded=0;whiteSpace=wrap;html=1;" vertex="1" parent="1">
          <mxGeometry x="530" y="210.01" width="150" height="112.39" as="geometry" />
        </mxCell>
        <mxCell id="13FwoXfMN4bSYk38nCAL-45" style="edgeStyle=orthogonalEdgeStyle;rounded=0;orthogonalLoop=1;jettySize=auto;html=1;" edge="1" parent="1" source="13FwoXfMN4bSYk38nCAL-32" target="13FwoXfMN4bSYk38nCAL-1">
          <mxGeometry relative="1" as="geometry" />
        </mxCell>
        <mxCell id="13FwoXfMN4bSYk38nCAL-32" value="" style="rounded=0;whiteSpace=wrap;html=1;" vertex="1" parent="1">
          <mxGeometry x="30" y="210.00000000000003" width="150" height="112.39" as="geometry" />
        </mxCell>
        <mxCell id="13FwoXfMN4bSYk38nCAL-41" style="edgeStyle=orthogonalEdgeStyle;rounded=0;orthogonalLoop=1;jettySize=auto;html=1;" edge="1" parent="1" source="13FwoXfMN4bSYk38nCAL-1" target="13FwoXfMN4bSYk38nCAL-38">
          <mxGeometry relative="1" as="geometry" />
        </mxCell>
        <mxCell id="13FwoXfMN4bSYk38nCAL-42" style="edgeStyle=orthogonalEdgeStyle;rounded=0;orthogonalLoop=1;jettySize=auto;html=1;entryX=0;entryY=0.5;entryDx=0;entryDy=0;" edge="1" parent="1" source="13FwoXfMN4bSYk38nCAL-1" target="13FwoXfMN4bSYk38nCAL-37">
          <mxGeometry relative="1" as="geometry" />
        </mxCell>
        <mxCell id="13FwoXfMN4bSYk38nCAL-1" value="" style="sketch=0;outlineConnect=0;fontColor=#232F3E;gradientColor=none;fillColor=#ED7100;strokeColor=none;dashed=0;verticalLabelPosition=bottom;verticalAlign=top;align=center;html=1;fontSize=12;fontStyle=0;aspect=fixed;pointerEvents=1;shape=mxgraph.aws4.braket_embedded_simulator;" vertex="1" parent="1">
          <mxGeometry x="323.77" y="322.39" width="78" height="78" as="geometry" />
        </mxCell>
        <mxCell id="13FwoXfMN4bSYk38nCAL-4" value="Flowmeter" style="text;html=1;align=center;verticalAlign=middle;whiteSpace=wrap;rounded=0;" vertex="1" parent="1">
          <mxGeometry x="75" y="170" width="60" height="30" as="geometry" />
        </mxCell>
        <mxCell id="13FwoXfMN4bSYk38nCAL-2" value="" style="pointerEvents=1;verticalLabelPosition=bottom;shadow=0;dashed=0;align=center;html=1;verticalAlign=top;shape=mxgraph.electrical.signal_sources.source;aspect=fixed;points=[[0.5,0,0],[1,0.5,0],[0.5,1,0],[0,0.5,0]];elSignalType=pulse;" vertex="1" parent="1">
          <mxGeometry x="75" y="236.18999999999997" width="60" height="60" as="geometry" />
        </mxCell>
        <mxCell id="13FwoXfMN4bSYk38nCAL-44" style="edgeStyle=orthogonalEdgeStyle;rounded=0;orthogonalLoop=1;jettySize=auto;html=1;" edge="1" parent="1" source="13FwoXfMN4bSYk38nCAL-33" target="13FwoXfMN4bSYk38nCAL-1">
          <mxGeometry relative="1" as="geometry" />
        </mxCell>
        <mxCell id="13FwoXfMN4bSYk38nCAL-33" value="" style="rounded=0;whiteSpace=wrap;html=1;" vertex="1" parent="1">
          <mxGeometry x="30" y="370.00000000000006" width="150" height="112.39" as="geometry" />
        </mxCell>
        <mxCell id="13FwoXfMN4bSYk38nCAL-11" value="" style="verticalLabelPosition=bottom;shadow=0;dashed=0;align=center;html=1;verticalAlign=top;shape=mxgraph.electrical.radio.loop_antenna;" vertex="1" parent="1">
          <mxGeometry x="72.60000000000002" y="391.3" width="64.8" height="69.78" as="geometry" />
        </mxCell>
        <mxCell id="13FwoXfMN4bSYk38nCAL-14" value="RFID" style="text;html=1;align=center;verticalAlign=middle;whiteSpace=wrap;rounded=0;" vertex="1" parent="1">
          <mxGeometry x="77.4" y="340" width="60" height="30" as="geometry" />
        </mxCell>
        <mxCell id="13FwoXfMN4bSYk38nCAL-25" value="" style="shape=image;html=1;verticalAlign=top;verticalLabelPosition=bottom;labelBackgroundColor=#ffffff;imageAspect=0;aspect=fixed;image=https://cdn4.iconfinder.com/data/icons/ionicons/512/icon-battery-charging-128.png" vertex="1" parent="1">
          <mxGeometry x="570" y="231.20999999999998" width="70" height="70" as="geometry" />
        </mxCell>
        <mxCell id="13FwoXfMN4bSYk38nCAL-27" value="Battery Level" style="text;html=1;align=center;verticalAlign=middle;whiteSpace=wrap;rounded=0;" vertex="1" parent="1">
          <mxGeometry x="580" y="170.01" width="60" height="30" as="geometry" />
        </mxCell>
        <mxCell id="13FwoXfMN4bSYk38nCAL-16" value="Module" style="text;html=1;align=center;verticalAlign=middle;whiteSpace=wrap;rounded=0;" vertex="1" parent="1">
          <mxGeometry x="575" y="340.01" width="60" height="30" as="geometry" />
        </mxCell>
        <mxCell id="13FwoXfMN4bSYk38nCAL-29" value="" style="verticalLabelPosition=bottom;aspect=fixed;html=1;verticalAlign=top;fillColor=strokeColor;align=center;outlineConnect=0;shape=mxgraph.fluid_power.x10210;points=[[0.67,0,0],[0.67,1,0],[0,0.62,0],[0.37,0.25,0],[0.37,0.75,0]]" vertex="1" parent="1">
          <mxGeometry x="300" y="529" width="125.54" height="75.22" as="geometry" />
        </mxCell>
        <mxCell id="13FwoXfMN4bSYk38nCAL-43" style="edgeStyle=orthogonalEdgeStyle;rounded=0;orthogonalLoop=1;jettySize=auto;html=1;" edge="1" parent="1" source="13FwoXfMN4bSYk38nCAL-37" target="13FwoXfMN4bSYk38nCAL-1">
          <mxGeometry relative="1" as="geometry" />
        </mxCell>
        <mxCell id="13FwoXfMN4bSYk38nCAL-37" value="" style="rounded=0;whiteSpace=wrap;html=1;" vertex="1" parent="1">
          <mxGeometry x="530" y="370" width="150" height="112.39" as="geometry" />
        </mxCell>
        <mxCell id="13FwoXfMN4bSYk38nCAL-6" value="" style="sketch=0;outlineConnect=0;fontColor=#232F3E;gradientColor=none;fillColor=#7AA116;strokeColor=none;dashed=0;verticalLabelPosition=bottom;verticalAlign=top;align=center;html=1;fontSize=12;fontStyle=0;aspect=fixed;pointerEvents=1;shape=mxgraph.aws4.iot_lorawan_protocol;" vertex="1" parent="1">
          <mxGeometry x="566" y="387.21" width="78" height="78" as="geometry" />
        </mxCell>
        <mxCell id="13FwoXfMN4bSYk38nCAL-39" value="Valvula Atuadora" style="text;html=1;align=center;verticalAlign=middle;whiteSpace=wrap;rounded=0;" vertex="1" parent="1">
          <mxGeometry x="332.77" y="629" width="60" height="30" as="geometry" />
        </mxCell>
      </root>
    </mxGraphModel>
  </diagram>
</mxfile>
